<?xml version="1.0" encoding="UTF-8" standalone="no"?>
<!-- Created with Inkscape (http://www.inkscape.org/) -->

<svg
   xmlns:dc="http://purl.org/dc/elements/1.1/"
   xmlns:cc="http://creativecommons.org/ns#"
   xmlns:rdf="http://www.w3.org/1999/02/22-rdf-syntax-ns#"
   xmlns:svg="http://www.w3.org/2000/svg"
   xmlns="http://www.w3.org/2000/svg"
   xmlns:sodipodi="http://sodipodi.sourceforge.net/DTD/sodipodi-0.dtd"
   xmlns:inkscape="http://www.inkscape.org/namespaces/inkscape"
   version="1.1"
   id="svg2"
   xml:space="preserve"
   width="1000"
   height="666.66669"
   viewBox="0 0 1000 666.66669"
   sodipodi:docname="banner.svg"
   inkscape:version="0.92.5 (2060ec1f9f, 2020-04-08)"><metadata
     id="metadata8"><rdf:RDF><cc:Work
         rdf:about=""><dc:format>image/svg+xml</dc:format><dc:type
           rdf:resource="http://purl.org/dc/dcmitype/StillImage" /><dc:title></dc:title></cc:Work></rdf:RDF></metadata><defs
     id="defs6"><clipPath
       clipPathUnits="userSpaceOnUse"
       id="clipPath20"><path
         d="M 0,500 H 750 V 0 H 0 Z"
         id="path18"
         inkscape:connector-curvature="0" /></clipPath><clipPath
       clipPathUnits="userSpaceOnUse"
       id="clipPath36"><path
         d="M 0,0 H 750 V 500 H 0 Z"
         id="path34"
         inkscape:connector-curvature="0" /></clipPath><clipPath
       clipPathUnits="userSpaceOnUse"
       id="clipPath72"><path
         d="m 369.758,405.856 -70.809,-7.991 c -2.462,-0.277 -4.233,-2.499 -3.955,-4.961 v 0 l 17.042,-151.028 c 0.278,-2.462 2.5,-4.233 4.962,-3.955 v 0 l 70.808,7.99 c 2.464,0.279 4.234,2.499 3.956,4.962 v 0 L 374.719,401.9 c -0.258,2.292 -2.2,3.985 -4.452,3.985 v 0 c -0.168,0 -0.338,-0.01 -0.509,-0.029"
         id="path70"
         inkscape:connector-curvature="0" /></clipPath><clipPath
       clipPathUnits="userSpaceOnUse"
       id="clipPath116"><path
         d="M 0,0 H 750 V 500 H 0 Z"
         id="path114"
         inkscape:connector-curvature="0" /></clipPath><clipPath
       clipPathUnits="userSpaceOnUse"
       id="clipPath140"><path
         d="m 302.992,458.039 h 47.276 v -40.26 h -47.276 z"
         id="path138"
         inkscape:connector-curvature="0" /></clipPath><clipPath
       clipPathUnits="userSpaceOnUse"
       id="clipPath168"><path
         d="M 0,0 H 750 V 500 H 0 Z"
         id="path166"
         inkscape:connector-curvature="0" /></clipPath><clipPath
       clipPathUnits="userSpaceOnUse"
       id="clipPath176"><path
         d="m 245.028,387.376 h 81.806 v -42.308 h -81.806 z"
         id="path174"
         inkscape:connector-curvature="0" /></clipPath><clipPath
       clipPathUnits="userSpaceOnUse"
       id="clipPath220"><path
         d="m 352.021,357.621 h 60.081 v -57.925 h -60.081 z"
         id="path218"
         inkscape:connector-curvature="0" /></clipPath><clipPath
       clipPathUnits="userSpaceOnUse"
       id="clipPath328"><path
         d="M 569.465,328.018 516.954,185.391 c -0.856,-2.326 0.335,-4.905 2.66,-5.76 v 0 l 66.87,-24.62 c 2.326,-0.856 4.905,0.334 5.761,2.66 v 0 l 52.51,142.627 c 0.857,2.325 -0.334,4.904 -2.659,5.761 v 0 l -66.87,24.619 c -0.511,0.188 -1.035,0.277 -1.55,0.277 v 0 c -1.826,0 -3.543,-1.123 -4.211,-2.937"
         id="path326"
         inkscape:connector-curvature="0" /></clipPath><clipPath
       clipPathUnits="userSpaceOnUse"
       id="clipPath368"><path
         d="M 0,0 H 750 V 500 H 0 Z"
         id="path366"
         inkscape:connector-curvature="0" /></clipPath><clipPath
       clipPathUnits="userSpaceOnUse"
       id="clipPath416"><path
         d="m 483.727,330.32 h 62.726 v -53.875 h -62.726 z"
         id="path414"
         inkscape:connector-curvature="0" /></clipPath><clipPath
       clipPathUnits="userSpaceOnUse"
       id="clipPath448"><path
         d="m 553.949,272.677 h 34.126 v -34.125 h -34.126 z"
         id="path446"
         inkscape:connector-curvature="0" /></clipPath><clipPath
       clipPathUnits="userSpaceOnUse"
       id="clipPath476"><path
         d="M 594.831,258.008 H 715.44 V 192.564 H 594.831 Z"
         id="path474"
         inkscape:connector-curvature="0" /></clipPath><clipPath
       clipPathUnits="userSpaceOnUse"
       id="clipPath512"><path
         d="m 655.996,302.267 h 53.677 V 246.56 h -53.677 z"
         id="path510"
         inkscape:connector-curvature="0" /></clipPath><clipPath
       clipPathUnits="userSpaceOnUse"
       id="clipPath572"><path
         d="m 143.388,298.147 -70.809,-7.993 c -2.463,-0.279 -4.233,-2.5 -3.955,-4.963 v 0 L 85.673,134.164 c 0.278,-2.462 2.499,-4.233 4.962,-3.955 v 0 l 70.808,7.994 c 2.462,0.277 4.233,2.499 3.954,4.961 v 0 l -17.048,151.027 c -0.258,2.292 -2.199,3.985 -4.452,3.984 v 0 c -0.168,0 -0.338,-0.009 -0.509,-0.028"
         id="path570"
         inkscape:connector-curvature="0" /></clipPath><clipPath
       clipPathUnits="userSpaceOnUse"
       id="clipPath604"><path
         d="M 0,0 H 750 V 500 H 0 Z"
         id="path602"
         inkscape:connector-curvature="0" /></clipPath><clipPath
       clipPathUnits="userSpaceOnUse"
       id="clipPath640"><path
         d="M 76.6102,350.297 H 123.908 V 310.01 H 76.6102 Z"
         id="path638"
         inkscape:connector-curvature="0" /></clipPath><clipPath
       clipPathUnits="userSpaceOnUse"
       id="clipPath668"><path
         d="M 0,0 H 750 V 500 H 0 Z"
         id="path666"
         inkscape:connector-curvature="0" /></clipPath><clipPath
       clipPathUnits="userSpaceOnUse"
       id="clipPath676"><path
         d="M 85.3345,284.853 H 235.441 V 237.579 H 85.3345 Z"
         id="path674"
         inkscape:connector-curvature="0" /></clipPath></defs><sodipodi:namedview
     pagecolor="#ffffff"
     bordercolor="#666666"
     borderopacity="1"
     objecttolerance="10"
     gridtolerance="10"
     guidetolerance="10"
     inkscape:pageopacity="0"
     inkscape:pageshadow="2"
     inkscape:window-width="1864"
     inkscape:window-height="1016"
     id="namedview4"
     showgrid="false"
     inkscape:zoom="0.90580381"
     inkscape:cx="499.99999"
     inkscape:cy="509.97203"
     inkscape:window-x="56"
     inkscape:window-y="27"
     inkscape:window-maximized="1"
     inkscape:current-layer="g10" /><g
     id="g10"
     inkscape:groupmode="layer"
     inkscape:label="3367075"
     transform="matrix(1.3333333,0,0,-1.3333333,0,666.66667)"><path
       d="M 0,0 H 750 V 500 H 0 Z"
       style="fill:#ffffff;fill-opacity:1;fill-rule:nonzero;stroke:none"
       id="path12"
       inkscape:connector-curvature="0" /><g
       id="g14"><g
         id="g16"
         clip-path="url(#clipPath20)"><g
           id="g22"
           transform="translate(272.7021,437.8799)"><path
             d="m 0,0 c 1.863,-83.264 48.471,-136.074 125.251,-162.933 49.769,-17.41 102.625,-26.344 152.547,-43.799 36.715,-12.838 82.215,-38.527 92.839,-79.381 10.035,-38.598 2.248,-81.038 -7.627,-118.846 -0.983,-3.763 -4.526,-16.741 -8.864,-32.921 h 123.152 v 500 H 3.827 C 1.118,41.492 -0.463,20.683 0,0"
             style="fill:#ffe2e0;fill-opacity:1;fill-rule:nonzero;stroke:none"
             id="path24"
             inkscape:connector-curvature="0" /></g><g
           id="g26"
           transform="translate(399.041,14.3506)"><path
             d="m 0,0 c -9.865,27.838 -28.839,48.269 -52.529,61.882 -27.854,16.006 -59.389,19.306 -90.756,22.666 -18.639,1.997 -37.519,4.684 -54.596,12.416 -51.013,23.097 -41.487,86.323 -73.294,124.445 -27.364,32.795 -83.463,42.301 -127.866,28.642 V -14.351 H 4.239 C 3.067,-9.502 1.669,-4.709 0,0"
             style="fill:#ffe2e0;fill-opacity:1;fill-rule:nonzero;stroke:none"
             id="path28"
             inkscape:connector-curvature="0" /></g></g></g><g
       id="g30"><g
         id="g32"
         clip-path="url(#clipPath36)"><g
           id="g38"
           transform="translate(302.2295,358.8657)"><path
             d="m 0,0 c 18.714,16.492 55.952,-90.269 55.743,-98.321 -0.84,-32.29 -6.578,-65.733 -22.887,-75.221 -15.041,-0.223 -34.108,3.241 -48.105,7.829 -0.749,12.539 -6.043,57.205 -5.792,76.344 C -20.81,-71.73 -3.624,-3.194 0,0"
             style="fill:#fd9b55;fill-opacity:1;fill-rule:nonzero;stroke:none"
             id="path40"
             inkscape:connector-curvature="0" /></g><g
           id="g42"
           transform="translate(242.8135,43.0137)"><path
             d="m 0,0 c 14.272,54.905 33.654,116.688 44.804,153.399 20.241,5.976 31.615,1.714 48.792,-6.38 C 88.858,103.468 78.925,9.035 72.961,-48.101 45.25,-36.454 20.458,-20.089 0,0"
             style="fill:#fd9b55;fill-opacity:1;fill-rule:nonzero;stroke:none"
             id="path44"
             inkscape:connector-curvature="0" /></g><g
           id="g46"
           transform="translate(321.1826,217.0176)"><path
             d="m 0,0 67.203,7.583 c 6.781,0.766 11.658,6.883 10.893,13.664 L 59.603,185.132 c -0.766,6.782 -6.883,11.659 -13.665,10.893 l -67.203,-7.584 c -6.78,-0.765 -11.657,-6.882 -10.892,-13.663 L -13.664,10.893 C -12.898,4.111 -6.781,-0.766 0,0"
             style="fill:#1d2769;fill-opacity:1;fill-rule:nonzero;stroke:none"
             id="path48"
             inkscape:connector-curvature="0" /></g><g
           id="g50"
           transform="translate(320.6406,221.8223)"><path
             d="m 0,0 67.203,7.583 c 6.781,0.766 11.657,6.883 10.893,13.664 L 59.602,185.133 c -0.765,6.781 -6.883,11.658 -13.664,10.892 l -67.203,-7.583 c -6.781,-0.765 -11.657,-6.883 -10.892,-13.664 L -13.664,10.893 C -12.898,4.111 -6.781,-0.766 0,0"
             style="fill:#2f4dab;fill-opacity:1;fill-rule:nonzero;stroke:none"
             id="path52"
             inkscape:connector-curvature="0" /></g><g
           id="g54"
           transform="translate(324.6118,403.3774)"><path
             d="m 0,0 11.584,1.308 c 0.842,0.094 1.447,0.854 1.353,1.696 -0.096,0.842 -0.855,1.447 -1.697,1.352 L -0.344,3.049 C -1.186,2.954 -1.792,2.194 -1.696,1.353 -1.601,0.511 -0.842,-0.095 0,0"
             style="fill:#1d2769;fill-opacity:1;fill-rule:nonzero;stroke:none"
             id="path56"
             inkscape:connector-curvature="0" /></g><g
           id="g58"
           transform="translate(341.8159,406.8628)"><path
             d="M 0,0 C 0.095,-0.842 0.854,-1.447 1.696,-1.352 2.538,-1.257 3.144,-0.498 3.049,0.344 2.954,1.186 2.194,1.791 1.353,1.696 0.511,1.601 -0.095,0.842 0,0"
             style="fill:#1d2769;fill-opacity:1;fill-rule:nonzero;stroke:none"
             id="path60"
             inkscape:connector-curvature="0" /></g><g
           id="g62"
           transform="translate(348.4531,234.8203)"><path
             d="m 0,0 c 0.292,-2.591 2.629,-4.453 5.22,-4.161 2.59,0.292 4.453,2.629 4.161,5.22 C 9.088,3.649 6.751,5.512 4.161,5.22 1.571,4.928 -0.292,2.591 0,0"
             style="fill:#1d2769;fill-opacity:1;fill-rule:nonzero;stroke:none"
             id="path64"
             inkscape:connector-curvature="0" /></g></g></g><g
       id="g66"><g
         id="g68"
         clip-path="url(#clipPath72)"><g
           id="g74"
           transform="translate(398.5166,245.4609)"><path
             d="m 0,0 -91.206,-10.423 -18.547,162.313 91.205,10.422 z"
             style="fill:#c1c9e7;fill-opacity:1;fill-rule:nonzero;stroke:none"
             id="path76"
             inkscape:connector-curvature="0" /></g><g
           id="g78"
           transform="translate(385.8115,356.6421)"><path
             d="m 0,0 -91.206,-10.423 -5.825,50.975 91.206,10.423 z"
             style="fill:#ffffff;fill-opacity:1;fill-rule:nonzero;stroke:none"
             id="path80"
             inkscape:connector-curvature="0" /></g><g
           id="g82"
           transform="translate(317.1382,337.6509)"><path
             d="m 0,0 c 0.389,-3.408 -2.058,-6.486 -5.466,-6.876 -3.408,-0.389 -6.486,2.058 -6.875,5.465 -0.39,3.409 2.057,6.487 5.465,6.876 C -3.468,5.855 -0.39,3.408 0,0"
             style="fill:#98a4d1;fill-opacity:1;fill-rule:nonzero;stroke:none"
             id="path84"
             inkscape:connector-curvature="0" /></g><g
           id="g86"
           transform="translate(324.4795,328.8516)"><path
             d="m 0,0 c -0.812,0 -1.513,0.61 -1.608,1.437 -0.101,0.889 0.537,1.692 1.426,1.793 L 52.403,9.239 C 53.289,9.333 54.096,8.703 54.196,7.813 54.298,6.924 53.66,6.121 52.771,6.02 L 0.186,0.011 C 0.124,0.004 0.062,0 0,0"
             style="fill:#98a4d1;fill-opacity:1;fill-rule:nonzero;stroke:none"
             id="path88"
             inkscape:connector-curvature="0" /></g><g
           id="g90"
           transform="translate(325.4146,320.6685)"><path
             d="m 0,0 c -0.812,0 -1.513,0.61 -1.608,1.437 -0.101,0.889 0.537,1.692 1.426,1.793 L 52.403,9.24 C 53.291,9.338 54.095,8.703 54.196,7.814 54.297,6.925 53.66,6.122 52.77,6.02 L 0.186,0.011 C 0.124,0.004 0.062,0 0,0"
             style="fill:#98a4d1;fill-opacity:1;fill-rule:nonzero;stroke:none"
             id="path92"
             inkscape:connector-curvature="0" /></g><g
           id="g94"
           transform="translate(323.5444,337.0342)"><path
             d="m 0,0 c -0.812,0 -1.513,0.61 -1.608,1.437 -0.101,0.889 0.537,1.692 1.426,1.793 L 52.402,9.24 C 53.294,9.336 54.095,8.703 54.196,7.814 54.297,6.925 53.66,6.122 52.77,6.02 L 0.186,0.011 C 0.124,0.004 0.062,0 0,0"
             style="fill:#98a4d1;fill-opacity:1;fill-rule:nonzero;stroke:none"
             id="path96"
             inkscape:connector-curvature="0" /></g><g
           id="g98"
           transform="translate(315.8169,252.4395)"><path
             d="m 0,0 c -0.812,0 -1.513,0.609 -1.608,1.436 -0.101,0.889 0.537,1.692 1.426,1.794 l 69.756,7.971 c 0.889,0.1 1.692,-0.536 1.793,-1.426 C 71.468,8.886 70.831,8.083 69.941,7.981 L 0.186,0.01 C 0.124,0.003 0.062,0 0,0"
             style="fill:#98a4d1;fill-opacity:1;fill-rule:nonzero;stroke:none"
             id="path100"
             inkscape:connector-curvature="0" /></g><g
           id="g102"
           transform="translate(316.8594,243.3174)"><path
             d="m 0,0 c -0.812,0 -1.513,0.609 -1.608,1.437 -0.101,0.888 0.537,1.691 1.426,1.792 l 69.755,7.973 c 0.888,0.099 1.693,-0.537 1.793,-1.426 C 71.468,8.887 70.83,8.083 69.94,7.982 L 0.186,0.011 C 0.124,0.003 0.062,0 0,0"
             style="fill:#98a4d1;fill-opacity:1;fill-rule:nonzero;stroke:none"
             id="path104"
             inkscape:connector-curvature="0" /></g><g
           id="g106"
           transform="translate(384.2402,273.7017)"><path
             d="m 0,0 -71.365,-8.155 -4.906,42.926 71.366,8.155 z"
             style="fill:#ffffff;fill-opacity:1;fill-rule:nonzero;stroke:none"
             id="path108"
             inkscape:connector-curvature="0" /></g></g></g><g
       id="g110"><g
         id="g112"
         clip-path="url(#clipPath116)"><g
           id="g118"
           transform="translate(320.8911,196.1992)"><path
             d="m 0,0 c 5.726,-0.849 22.077,26.127 11.35,57.409 14.623,12.6 22.039,48.053 10.482,52.733 C 13.823,113.386 -27.525,47.536 -27.205,40.851 -26.616,28.595 0.189,7.944 0,0"
             style="fill:#fd9b55;fill-opacity:1;fill-rule:nonzero;stroke:none"
             id="path120"
             inkscape:connector-curvature="0" /></g><g
           id="g122"
           transform="translate(332.1592,253.4307)"><path
             d="m 0,0 c 2.053,-4.965 3.551,-10.169 4.379,-15.538 0.825,-5.358 0.954,-10.932 -0.106,-16.385 -1.024,-5.449 -3.319,-10.686 -6.59,-15.113 -3.264,-4.444 -7.433,-8.068 -12.001,-10.887 3.66,3.934 7.108,7.943 9.762,12.387 2.661,4.433 4.472,9.253 5.44,14.27 0.97,5.021 1.127,10.222 0.825,15.448 C 1.407,-10.586 0.673,-5.336 0,0"
             style="fill:#d37c3a;fill-opacity:1;fill-rule:nonzero;stroke:none"
             id="path124"
             inkscape:connector-curvature="0" /></g><g
           id="g126"
           transform="translate(391.877,202.998)"><path
             d="M 0,0 C -15.397,15.913 -31.182,31.451 -35.84,26.945 -42.05,20.937 -26.589,-24.117 0.225,-42.511 10.344,-49.451 32.946,-2.866 0,0"
             style="fill:#fd9b55;fill-opacity:1;fill-rule:nonzero;stroke:none"
             id="path128"
             inkscape:connector-curvature="0" /></g><g
           id="g130"
           transform="translate(391.8018,306.896)"><path
             d="m 0,0 c -20.577,-59.252 -3.271,-137.522 0.974,-140.553 17.011,-12.147 59.168,-17.251 63.322,-11.315 15.164,21.67 22.313,59.127 9.225,80.242 -4.394,7.086 -45.912,15.806 -55.113,14.022 -3.929,16.488 -2.556,42.067 -0.658,52.719 C 21.959,18.726 5.734,16.511 0,0"
             style="fill:#fd9b55;fill-opacity:1;fill-rule:nonzero;stroke:none"
             id="path132"
             inkscape:connector-curvature="0" /></g><g
           id="g134"><g
             id="g136" /><g
             id="g148"><g
               clip-path="url(#clipPath140)"
               id="g146"
               style="opacity:0.19999701"><g
                 transform="translate(342.1543,458.0034)"
                 id="g144"><path
                   d="m 0,0 -33.996,-3.787 c -3.188,-0.355 -5.485,-3.228 -5.129,-6.416 l 1.661,-14.92 c 0.356,-3.188 3.228,-5.484 6.416,-5.129 l 11.087,1.234 7.375,-11.207 4.624,12.544 10.91,1.216 c 3.188,0.355 5.485,3.227 5.13,6.415 L 6.416,-5.13 C 6.06,-1.941 3.188,0.355 0,0"
                   style="fill:#000a49;fill-opacity:1;fill-rule:nonzero;stroke:none"
                   id="path142"
                   inkscape:connector-curvature="0" /></g></g></g></g><g
           id="g150"
           transform="translate(342.1543,466.6445)"><path
             d="m 0,0 -33.996,-3.787 c -3.188,-0.355 -5.485,-3.228 -5.129,-6.416 l 1.661,-14.92 c 0.356,-3.188 3.228,-5.484 6.416,-5.129 l 11.087,1.234 7.375,-11.207 4.624,12.544 10.91,1.216 c 3.188,0.355 5.485,3.227 5.13,6.415 L 6.416,-5.129 C 6.06,-1.941 3.188,0.355 0,0"
             style="fill:#fd0044;fill-opacity:1;fill-rule:nonzero;stroke:none"
             id="path152"
             inkscape:connector-curvature="0" /></g><g
           id="g154"
           transform="translate(328.5469,454.8022)"><path
             d="m 0,0 c -0.271,2.427 -2.458,4.176 -4.884,3.905 -1.669,-0.186 -3.017,-1.277 -3.609,-2.73 -0.896,1.287 -2.451,2.055 -4.12,1.869 -2.427,-0.27 -4.176,-2.457 -3.905,-4.884 0.13,-1.167 0.703,-2.177 1.533,-2.881 l -0.003,-0.003 7.852,-6.278 6.278,7.852 -0.004,0.002 C -0.207,-2.278 0.13,-1.167 0,0"
             style="fill:#ffffff;fill-opacity:1;fill-rule:nonzero;stroke:none"
             id="path156"
             inkscape:connector-curvature="0" /></g></g></g><text
       transform="matrix(0.99385307,0.11070717,0.11070717,-0.99385307,334.1265,445.8207)"
       style="font-variant:normal;font-weight:800;font-stretch:normal;font-size:18.79372406px;font-family:'Gilroy ExtraBold';-inkscape-font-specification:Gilroy-ExtraBold;writing-mode:lr-tb;fill:#ffffff;fill-opacity:1;fill-rule:nonzero;stroke:none"
       id="text160"><tspan
         x="0"
         y="0"
         id="tspan158">1</tspan></text>
<g
       id="g162"><g
         id="g164"
         clip-path="url(#clipPath168)"><g
           id="g170"><g
             id="g172" /><g
             id="g184"><g
               clip-path="url(#clipPath176)"
               id="g182"
               style="opacity:0.19999701"><g
                 transform="translate(320.02,352.3647)"
                 id="g180"><path
                   d="m 0,0 -64.233,-7.248 c -4.211,-0.475 -8.011,2.554 -8.486,6.766 l -2.224,19.711 c -0.475,4.211 2.553,8.01 6.765,8.486 l 64.233,7.247 c 4.212,0.476 8.011,-2.553 8.486,-6.765 L 6.765,8.486 C 7.241,4.275 4.211,0.476 0,0"
                   style="fill:#000a49;fill-opacity:1;fill-rule:nonzero;stroke:none"
                   id="path178"
                   inkscape:connector-curvature="0" /></g></g></g></g><g
           id="g186"
           transform="translate(320.02,361.0059)"><path
             d="m 0,0 -64.233,-7.248 c -4.211,-0.475 -8.011,2.554 -8.486,6.766 l -2.224,19.711 c -0.475,4.211 2.553,8.01 6.765,8.486 l 64.233,7.247 c 4.212,0.476 8.011,-2.553 8.486,-6.765 L 6.765,8.486 C 7.241,4.275 4.211,0.476 0,0"
             style="fill:#2b459c;fill-opacity:1;fill-rule:nonzero;stroke:none"
             id="path188"
             inkscape:connector-curvature="0" /></g><g
           id="g190"
           transform="translate(262.7871,371.0308)"><path
             d="M 0,0 V 0 C -3.627,-0.409 -6.235,-3.681 -5.826,-7.307 L 7.307,-5.825 C 6.898,-2.199 3.626,0.409 0,0"
             style="fill:#ffffff;fill-opacity:1;fill-rule:nonzero;stroke:none"
             id="path192"
             inkscape:connector-curvature="0" /></g><g
           id="g194"
           transform="translate(262.6167,372.5376)"><path
             d="M 0,0 C 2.063,0.232 3.547,2.094 3.314,4.157 3.082,6.22 1.22,7.704 -0.843,7.471 -2.906,7.238 -4.39,5.377 -4.157,3.314 -3.924,1.25 -2.063,-0.233 0,0"
             style="fill:#ffffff;fill-opacity:1;fill-rule:nonzero;stroke:none"
             id="path196"
             inkscape:connector-curvature="0" /></g><g
           id="g198"
           transform="translate(276.3228,377.9111)"><path
             d="m 0,0 c -0.672,0 -1.251,0.504 -1.328,1.188 -0.083,0.734 0.445,1.396 1.18,1.479 L 35.945,6.74 c 0.732,0.09 1.397,-0.445 1.48,-1.179 0.082,-0.734 -0.446,-1.397 -1.18,-1.48 L 0.151,0.008 C 0.101,0.002 0.05,0 0,0"
             style="fill:#ffffff;fill-opacity:1;fill-rule:nonzero;stroke:none"
             id="path200"
             inkscape:connector-curvature="0" /></g><g
           id="g202"
           transform="translate(304.3315,375.6016)"><path
             d="m 0,0 c -0.672,0 -1.251,0.504 -1.328,1.188 -0.083,0.734 0.445,1.396 1.18,1.479 L 8.546,3.649 C 9.277,3.727 9.942,3.204 10.025,2.469 10.108,1.735 9.58,1.073 8.846,0.99 L 0.151,0.008 C 0.101,0.003 0.05,0 0,0"
             style="fill:#ffffff;fill-opacity:1;fill-rule:nonzero;stroke:none"
             id="path204"
             inkscape:connector-curvature="0" /></g><g
           id="g206"
           transform="translate(276.9321,372.5103)"><path
             d="m 0,0 c -0.672,0 -1.251,0.504 -1.328,1.188 -0.083,0.734 0.445,1.396 1.18,1.479 L 22.114,5.179 C 22.851,5.262 23.51,4.734 23.593,4 23.676,3.265 23.148,2.603 22.414,2.52 L 0.151,0.008 C 0.101,0.003 0.05,0 0,0"
             style="fill:#ffffff;fill-opacity:1;fill-rule:nonzero;stroke:none"
             id="path208"
             inkscape:connector-curvature="0" /></g><g
           id="g210"
           transform="translate(277.5415,367.1094)"><path
             d="m 0,0 c -0.672,0 -1.251,0.504 -1.328,1.188 -0.083,0.734 0.445,1.396 1.18,1.479 L 14.605,4.332 C 15.336,4.408 16.001,3.887 16.084,3.152 16.167,2.418 15.639,1.756 14.905,1.673 L 0.151,0.008 C 0.101,0.003 0.05,0 0,0"
             style="fill:#ffffff;fill-opacity:1;fill-rule:nonzero;stroke:none"
             id="path212"
             inkscape:connector-curvature="0" /></g><g
           id="g214"><g
             id="g216" /><g
             id="g228"><g
               clip-path="url(#clipPath220)"
               id="g226"
               style="opacity:0.19999701"><g
                 transform="translate(400.5283,357.5679)"
                 id="g224"><path
                   d="m 0,0 -41.177,-4.646 c -4.53,-0.511 -7.788,-4.598 -7.277,-9.129 l 2.392,-21.203 2.583,-22.894 13.179,16.366 34.544,3.897 c 4.53,0.511 7.788,4.599 7.277,9.129 L 9.129,-7.277 C 8.617,-2.747 4.53,0.511 0,0"
                   style="fill:#000a49;fill-opacity:1;fill-rule:nonzero;stroke:none"
                   id="path222"
                   inkscape:connector-curvature="0" /></g></g></g></g><g
           id="g230"
           transform="translate(400.5283,366.209)"><path
             d="m 0,0 -41.177,-4.646 c -4.53,-0.511 -7.788,-4.598 -7.277,-9.129 l 2.392,-21.203 2.583,-22.894 13.179,16.366 34.544,3.897 c 4.53,0.511 7.788,4.599 7.277,9.129 L 9.129,-7.277 C 8.617,-2.747 4.53,0.511 0,0"
             style="fill:#ffffff;fill-opacity:1;fill-rule:nonzero;stroke:none"
             id="path232"
             inkscape:connector-curvature="0" /></g><g
           id="g234"
           transform="translate(382.0371,359.2886)"><path
             d="m 0,0 c -0.521,0 -1.043,-0.029 -1.568,-0.088 -7.534,-0.85 -12.973,-7.672 -12.122,-15.206 0.85,-7.534 7.669,-12.976 15.205,-12.122 3.65,0.412 6.921,2.221 9.21,5.093 2.29,2.871 3.324,6.463 2.912,10.113 C 13.225,-8.561 11.417,-5.29 8.545,-3 6.086,-1.04 3.099,0 0,0 m -0.039,-29.341 c -7.819,0 -14.58,5.891 -15.478,13.841 -0.466,4.138 0.706,8.209 3.302,11.465 2.595,3.256 6.304,5.306 10.442,5.773 4.127,0.468 8.208,-0.705 11.463,-3.301 3.256,-2.596 5.306,-6.304 5.773,-10.441 0.467,-4.138 -0.705,-8.209 -3.301,-11.465 -2.596,-3.256 -6.304,-5.306 -10.441,-5.773 -0.591,-0.067 -1.178,-0.099 -1.76,-0.099"
             style="fill:#2b459c;fill-opacity:1;fill-rule:nonzero;stroke:none"
             id="path236"
             inkscape:connector-curvature="0" /></g><g
           id="g238"
           transform="translate(390.5537,351.8613)"><path
             d="M 0,0 C 0.004,1.124 -0.848,2.038 -1.902,2.042 -2.77,2.045 -3.504,1.433 -3.74,0.591 -3.971,1.435 -4.7,2.053 -5.567,2.056 -6.622,2.061 -7.48,1.153 -7.485,0.029 c -0.009,-2.424 2.879,-4.395 3.635,-4.606 0.06,-0.022 0.12,-0.034 0.179,0 C -2.913,-4.373 -0.01,-2.423 0,0"
             style="fill:#fd0044;fill-opacity:1;fill-rule:nonzero;stroke:none"
             id="path240"
             inkscape:connector-curvature="0" /></g><g
           id="g242"
           transform="translate(372.2729,349.7983)"><path
             d="M 0,0 C -0.254,1.095 0.372,2.176 1.399,2.415 2.244,2.611 3.096,2.178 3.515,1.41 3.551,2.284 4.125,3.049 4.968,3.245 5.997,3.484 7.036,2.791 7.291,1.696 7.839,-0.664 5.463,-3.229 4.773,-3.604 4.719,-3.638 4.665,-3.663 4.598,-3.644 3.814,-3.613 0.549,-2.36 0,0"
             style="fill:#fd0044;fill-opacity:1;fill-rule:nonzero;stroke:none"
             id="path244"
             inkscape:connector-curvature="0" /></g><g
           id="g246"
           transform="translate(372.1177,343.3809)"><path
             d="m 0,0 c 0.007,-0.083 0.006,-0.164 0.015,-0.246 0.625,-5.534 5.617,-9.515 11.152,-8.89 5.535,0.624 9.514,5.617 8.89,11.152 -0.01,0.082 -0.028,0.161 -0.04,0.242 z"
             style="fill:#2b459c;fill-opacity:1;fill-rule:nonzero;stroke:none"
             id="path248"
             inkscape:connector-curvature="0" /></g><g
           id="g250"
           transform="translate(345.9009,172.2705)"><path
             d="m 0,0 c -19.124,12.483 -57.78,24.169 -74.818,15.192 -0.987,-1.898 -0.329,-9.438 0.786,-11.179 L -4.521,-14.914 C -2.469,-11.313 0.349,-4.969 0,0"
             style="fill:#1d2769;fill-opacity:1;fill-rule:nonzero;stroke:none"
             id="path252"
             inkscape:connector-curvature="0" /></g><g
           id="g254"
           transform="translate(317.8862,-48.6338)"><path
             d="m 0,0 c 7.396,73.606 20.712,155.81 23.494,205.99 -21.266,12.909 -41.666,18.964 -69.512,18.927 -18.09,-54.088 -55.76,-166.763 -75.41,-238.014 C -78.517,-15.965 -37.245,-11.491 0,0"
             style="fill:#fd0044;fill-opacity:1;fill-rule:nonzero;stroke:none"
             id="path256"
             inkscape:connector-curvature="0" /></g><g
           id="g258"
           transform="translate(341.3799,157.3564)"><path
             d="m 0,0 c -2.608,1.583 -5.203,3.062 -7.8,4.44 -7.827,-41.817 -20.476,-86.377 -38.035,-131.544 -12.687,-32.633 -27.051,-63.299 -42.522,-91.433 22.577,2.016 44.333,6.213 64.863,12.547 C -16.098,-132.384 -2.782,-50.181 0,0"
             style="fill:#e2003b;fill-opacity:1;fill-rule:nonzero;stroke:none"
             id="path260"
             inkscape:connector-curvature="0" /></g><g
           id="g262"
           transform="translate(389.0781,175.3906)"><path
             d="m 0,0 c 0,0 14.173,-62.657 14.225,-72.182 14.098,-3.17 38.221,7.913 43.988,7.456 0,0 9.026,51.632 13.901,66.879 z"
             style="fill:#fd9b55;fill-opacity:1;fill-rule:nonzero;stroke:none"
             id="path264"
             inkscape:connector-curvature="0" /></g><g
           id="g266"
           transform="translate(457.584,143.6816)"><path
             d="m 0,0 c -20.835,6.96 -59.059,8.056 -71.845,-4.986 -0.344,-2.075 2.416,-9.122 3.923,-10.498 L 0.21,-15.459 C 1.024,-11.476 1.743,-4.666 0,0"
             style="fill:#1d2769;fill-opacity:1;fill-rule:nonzero;stroke:none"
             id="path268"
             inkscape:connector-curvature="0" /></g><g
           id="g270"
           transform="translate(495.8154,-75.1289)"><path
             d="m 0,0 c -14.487,72.402 -26.106,154.581 -38.021,203.352 -22.891,6.807 -43.03,7.279 -68.132,-0.026 -0.769,-56.508 -2.356,-174.217 0.402,-247.564 C -66.226,-35.781 -30.288,-20.725 0,0"
             style="fill:#fd0044;fill-opacity:1;fill-rule:nonzero;stroke:none"
             id="path272"
             inkscape:connector-curvature="0" /></g><g
           id="g274"
           transform="translate(457.7939,128.2227)"><path
             d="m 0,0 c -2.808,0.835 -5.573,1.573 -8.312,2.215 4.961,-42.08 6.362,-88.044 3.508,-135.871 -2.062,-34.556 -6.202,-67.667 -12.068,-98.641 19.783,7.824 38.198,17.522 54.893,28.945 C 23.534,-130.949 11.915,-48.771 0,0"
             style="fill:#e2003b;fill-opacity:1;fill-rule:nonzero;stroke:none"
             id="path276"
             inkscape:connector-curvature="0" /></g><g
           id="g278"
           transform="translate(602.5957,224.418)"><path
             d="m 0,0 c -16.671,18.555 -73.809,-49.553 -73.47,-57.601 1.132,-26.916 19.934,-47.824 33.514,-60.921 14.556,-3.798 34.234,-2.204 48.921,-1.081 C 16.655,-80.818 27.674,-30.799 0,0"
             style="fill:#f8b586;fill-opacity:1;fill-rule:nonzero;stroke:none"
             id="path280"
             inkscape:connector-curvature="0" /></g><g
           id="g282"
           transform="translate(503.5146,189.5732)"><path
             d="M 0,0 C 11.077,-3.05 20.846,-6.708 29.156,-14.921 35.256,-20.948 52.583,1.796 43.452,5.36 31.604,9.984 19.296,14.088 6.643,17.603 -3.096,20.316 -9.087,16.388 -10.251,11.794 -11.285,7.71 -8.313,2.3 0,0"
             style="fill:#f8b586;fill-opacity:1;fill-rule:nonzero;stroke:none"
             id="path284"
             inkscape:connector-curvature="0" /></g><g
           id="g286"
           transform="translate(502.8936,159.5449)"><path
             d="M 0,0 C 12.901,-2.405 23.233,-4.873 32.856,-18.722 38.249,-26.481 59.748,-1.386 49.371,2.577 35.906,7.719 21.937,12.354 7.592,16.409 -3.448,19.538 -10.442,15.622 -10.816,10.607 -11.135,6.344 -8.626,1.104 0,0"
             style="fill:#f8b586;fill-opacity:1;fill-rule:nonzero;stroke:none"
             id="path288"
             inkscape:connector-curvature="0" /></g><g
           id="g290"
           transform="translate(507.0371,217.6211)"><path
             d="m 0,0 c 11.016,-3.264 20.712,-7.11 28.862,-15.482 5.982,-6.145 19.76,1.582 23.629,5.634 3.856,4.043 0.116,10.626 -8.944,14.367 C 31.79,9.371 19.563,13.711 6.981,17.471 -2.703,20.372 -11.494,20.164 -13.124,13.255 -14.361,8.009 -8.268,2.459 0,0"
             style="fill:#f8b586;fill-opacity:1;fill-rule:nonzero;stroke:none"
             id="path292"
             inkscape:connector-curvature="0" /></g><g
           id="g294"
           transform="translate(587.1855,237.8086)"><path
             d="m 0,0 c -7.711,7.183 -40.039,35.597 -49.95,35.838 -5.666,0.138 -9.153,-3.826 -8.131,-8.921 0.91,-4.544 4.609,-8.553 7.761,-12.267 6.166,-7.268 15.086,-13.379 20.758,-20.021 3.047,-3.568 9.889,-13.459 14.134,-15.804 C -8.812,-24.831 8.084,-7.529 0,0"
             style="fill:#f8b586;fill-opacity:1;fill-rule:nonzero;stroke:none"
             id="path296"
             inkscape:connector-curvature="0" /></g><g
           id="g298"
           transform="translate(575.1855,-103.2314)"><path
             d="M 0,0 C 9.153,55.987 31.756,169.825 36.405,207.91 20.311,221.562 6.264,210.02 -12.72,209.564 -26,167.817 -54.683,82.547 -72.336,27.881 c 0,0 45.501,-37.98 72.336,-27.881"
             style="fill:#f8b586;fill-opacity:1;fill-rule:nonzero;stroke:none"
             id="path300"
             inkscape:connector-curvature="0" /></g><g
           id="g302"
           transform="translate(577.4434,135.7051)"><path
             d="m 0,0 -63.465,23.365 c -6.404,2.358 -9.684,9.461 -7.326,15.864 l 56.981,154.77 c 2.358,6.404 9.46,9.684 15.865,7.326 L 65.52,177.959 c 6.403,-2.357 9.683,-9.46 7.326,-15.864 L 15.864,7.326 C 13.506,0.922 6.403,-2.358 0,0"
             style="fill:#1d2769;fill-opacity:1;fill-rule:nonzero;stroke:none"
             id="path304"
             inkscape:connector-curvature="0" /></g><g
           id="g306"
           transform="translate(579.1133,140.2422)"><path
             d="m 0,0 -63.465,23.366 c -6.403,2.358 -9.683,9.46 -7.326,15.864 L -13.809,194 c 2.358,6.403 9.46,9.684 15.865,7.326 L 65.521,177.96 c 6.403,-2.358 9.683,-9.46 7.326,-15.864 L 15.864,7.326 C 13.507,0.922 6.404,-2.357 0,0"
             style="fill:#2f4dab;fill-opacity:1;fill-rule:nonzero;stroke:none"
             id="path308"
             inkscape:connector-curvature="0" /></g><g
           id="g310"
           transform="translate(618.4834,317.522)"><path
             d="m 0,0 -10.939,4.028 c -0.795,0.293 -1.203,1.174 -0.91,1.97 0.292,0.794 1.174,1.202 1.969,0.909 L 1.061,2.879 C 1.855,2.586 2.263,1.705 1.97,0.91 1.677,0.115 0.795,-0.292 0,0"
             style="fill:#1d2769;fill-opacity:1;fill-rule:nonzero;stroke:none"
             id="path312"
             inkscape:connector-curvature="0" /></g><g
           id="g314"
           transform="translate(602.6035,325.0034)"><path
             d="m 0,0 c -0.292,-0.795 -1.174,-1.203 -1.969,-0.91 -0.795,0.293 -1.202,1.175 -0.91,1.97 0.293,0.794 1.175,1.202 1.97,0.909 C -0.114,1.676 0.293,0.795 0,0"
             style="fill:#1d2769;fill-opacity:1;fill-rule:nonzero;stroke:none"
             id="path316"
             inkscape:connector-curvature="0" /></g><g
           id="g318"
           transform="translate(555.1963,159.4883)"><path
             d="m 0,0 c -0.901,-2.446 -3.614,-3.699 -6.061,-2.799 -2.446,0.902 -3.7,3.614 -2.798,6.061 0.9,2.446 3.614,3.699 6.06,2.799 C -0.353,5.16 0.9,2.446 0,0"
             style="fill:#1d2769;fill-opacity:1;fill-rule:nonzero;stroke:none"
             id="path320"
             inkscape:connector-curvature="0" /></g></g></g><g
       id="g322"><g
         id="g324"
         clip-path="url(#clipPath328)"><g
           id="g330"
           transform="translate(595.7217,148.5771)"><path
             d="M 0,0 -86.319,31.242 -30.72,184.859 55.6,153.617 Z"
             style="fill:#c1c9e7;fill-opacity:1;fill-rule:nonzero;stroke:none"
             id="path332"
             inkscape:connector-curvature="0" /></g><g
           id="g334"
           transform="translate(612.4854,194.8936)"><path
             d="m 0,0 -86.319,31.242 27.018,74.651 86.32,-31.242 z"
             style="fill:#ffffff;fill-opacity:1;fill-rule:nonzero;stroke:none"
             id="path336"
             inkscape:connector-curvature="0" /></g><g
           id="g338"
           transform="translate(635.6025,288.8638)"><path
             d="m 0,0 c -0.184,0 -0.369,0.031 -0.552,0.097 l -66.017,23.895 c -0.841,0.304 -1.277,1.233 -0.972,2.074 0.305,0.843 1.233,1.278 2.075,0.973 L 0.552,3.144 C 1.393,2.839 1.828,1.911 1.523,1.069 1.285,0.41 0.663,0 0,0"
             style="fill:#98a4d1;fill-opacity:1;fill-rule:nonzero;stroke:none"
             id="path340"
             inkscape:connector-curvature="0" /></g><g
           id="g342"
           transform="translate(632.4785,280.231)"><path
             d="M 0,0 C -0.184,0 -0.369,0.031 -0.552,0.097 L -66.57,23.992 c -0.841,0.304 -1.277,1.233 -0.972,2.074 0.304,0.843 1.232,1.278 2.075,0.973 L 0.552,3.144 C 1.393,2.839 1.828,1.911 1.523,1.069 1.285,0.41 0.663,0 0,0"
             style="fill:#98a4d1;fill-opacity:1;fill-rule:nonzero;stroke:none"
             id="path344"
             inkscape:connector-curvature="0" /></g><g
           id="g346"
           transform="translate(542.5332,208.4375)"><path
             d="m 0,0 c -1.168,-3.226 -4.729,-4.895 -7.954,-3.727 -3.226,1.167 -4.894,4.729 -3.727,7.955 1.168,3.224 4.729,4.893 7.954,3.725 C -0.501,6.786 1.167,3.225 0,0"
             style="fill:#98a4d1;fill-opacity:1;fill-rule:nonzero;stroke:none"
             id="path348"
             inkscape:connector-curvature="0" /></g><g
           id="g350"
           transform="translate(595.6836,179.1074)"><path
             d="M 0,0 C -0.184,0 -0.369,0.031 -0.552,0.098 L -50.319,18.11 c -0.841,0.305 -1.277,1.234 -0.972,2.076 0.305,0.841 1.233,1.278 2.075,0.971 L 0.552,3.145 C 1.393,2.84 1.828,1.911 1.523,1.069 1.285,0.41 0.663,0 0,0"
             style="fill:#98a4d1;fill-opacity:1;fill-rule:nonzero;stroke:none"
             id="path352"
             inkscape:connector-curvature="0" /></g><g
           id="g354"
           transform="translate(592.8809,171.3623)"><path
             d="M 0,0 C -0.184,0 -0.369,0.031 -0.552,0.098 L -50.319,18.11 c -0.841,0.305 -1.277,1.234 -0.972,2.076 0.304,0.841 1.232,1.279 2.075,0.971 L 0.552,3.145 C 1.393,2.84 1.828,1.911 1.523,1.069 1.285,0.41 0.663,0 0,0"
             style="fill:#98a4d1;fill-opacity:1;fill-rule:nonzero;stroke:none"
             id="path356"
             inkscape:connector-curvature="0" /></g><g
           id="g358"
           transform="translate(598.4863,186.8516)"><path
             d="M 0,0 C -0.184,0 -0.369,0.031 -0.552,0.098 L -50.319,18.11 c -0.841,0.305 -1.277,1.234 -0.972,2.076 0.304,0.841 1.231,1.277 2.075,0.971 L 0.552,3.145 C 1.393,2.84 1.828,1.911 1.523,1.069 1.285,0.41 0.663,0 0,0"
             style="fill:#98a4d1;fill-opacity:1;fill-rule:nonzero;stroke:none"
             id="path360"
             inkscape:connector-curvature="0" /></g></g></g><g
       id="g362"><g
         id="g364"
         clip-path="url(#clipPath368)"><g
           id="g370"
           transform="translate(572.7695,115.416)"><path
             d="m 0,0 c -5.763,0.538 -15.222,30.632 2.646,58.46 -14.258,3.967 -31.836,14.772 -23.985,21.534 5.389,4.641 33.856,-1.37 41.241,-5.23 8.16,-8.541 18.648,-25.4 20.992,-31.668 C 40.894,43.096 1.708,7.761 0,0"
             style="fill:#f8b586;fill-opacity:1;fill-rule:nonzero;stroke:none"
             id="path372"
             inkscape:connector-curvature="0" /></g><g
           id="g374"
           transform="translate(575.4521,173.6846)"><path
             d="m 0,0 c -1.925,-5.022 -3.887,-9.947 -5.427,-14.956 -1.536,-5.004 -2.623,-10.094 -2.876,-15.201 -0.254,-5.103 0.357,-10.215 1.887,-15.155 1.519,-4.948 3.913,-9.663 6.531,-14.355 -3.764,3.826 -6.952,8.338 -9.063,13.432 -2.123,5.078 -3.106,10.711 -2.803,16.248 0.269,5.548 1.722,10.931 3.798,15.938 C -5.87,-9.031 -3.176,-4.334 0,0"
             style="fill:#ff9549;fill-opacity:1;fill-rule:nonzero;stroke:none"
             id="path376"
             inkscape:connector-curvature="0" /></g><g
           id="g378"
           transform="translate(556.8535,93.6045)"><path
             d="m 0,0 c 15.878,1.953 45.161,-6.504 52.042,-9.751 5.055,-1.959 1.985,-23.359 -2.477,-25.89 L -7.89,-25.749 C -8.422,-21.635 -6.664,-6.685 0,0"
             style="fill:#1d2769;fill-opacity:1;fill-rule:nonzero;stroke:none"
             id="path380"
             inkscape:connector-curvature="0" /></g><g
           id="g382"
           transform="translate(478.0156,-132.4131)"><path
             d="m 0,0 c 21.177,70.882 54.413,152.809 70.948,200.269 17.734,1.659 37.298,-1.872 57.455,-9.892 C 124.591,133.456 116.633,14.887 107.729,-58.499 66.804,-44.758 30.196,-24.854 0,0"
             style="fill:#2f4dab;fill-opacity:1;fill-rule:nonzero;stroke:none"
             id="path384"
             inkscape:connector-curvature="0" /></g><g
           id="g386"
           transform="translate(533.9697,-169.0664)"><path
             d="m 0,0 c -20.393,10.55 -39.165,22.835 -55.954,36.653 21.177,70.882 54.413,152.809 70.948,200.269 3.16,0.296 6.381,0.419 9.651,0.389 C 2.158,158.877 -1.997,48.465 0,0"
             style="fill:#2b459c;fill-opacity:1;fill-rule:nonzero;stroke:none"
             id="path388"
             inkscape:connector-curvature="0" /></g><g
           id="g390"
           transform="translate(589.208,71.793)"><path
             d="m 0,0 c -7.671,-63.247 -15.341,-126.493 -23.012,-189.74 -3.175,0.103 -6.338,0.303 -9.483,0.598 11.948,62.985 22.554,126.155 31.815,189.405 z"
             style="fill:#1d2769;fill-opacity:1;fill-rule:nonzero;stroke:none"
             id="path392"
             inkscape:connector-curvature="0" /></g><g
           id="g394"
           transform="translate(557.8369,73.3281)"><path
             d="m 0,0 c -16.671,-57.643 -33.342,-115.285 -50.013,-172.929 -2.885,1.322 -5.747,2.736 -8.582,4.242 20.276,55.619 39.47,111.87 57.572,168.661 z"
             style="fill:#1d2769;fill-opacity:1;fill-rule:nonzero;stroke:none"
             id="path396"
             inkscape:connector-curvature="0" /></g><g
           id="g398"
           transform="translate(599.3135,67.875)"><path
             d="m 0,0 c -4.14,-62.204 -8.28,-124.407 -12.42,-186.61 -3.241,-0.317 -6.471,-0.536 -9.689,-0.658 8.446,62.547 15.561,125.103 21.344,187.564 z"
             style="fill:#1d2769;fill-opacity:1;fill-rule:nonzero;stroke:none"
             id="path400"
             inkscape:connector-curvature="0" /></g><g
           id="g402"
           transform="translate(568.7109,73.6064)"><path
             d="m 0,0 c -14.05,-60.644 -28.1,-121.287 -42.15,-181.931 -2.998,0.922 -5.976,1.938 -8.93,3.047 17.945,59.146 34.695,118.799 50.233,178.863 z"
             style="fill:#1d2769;fill-opacity:1;fill-rule:nonzero;stroke:none"
             id="path404"
             inkscape:connector-curvature="0" /></g><g
           id="g406"
           transform="translate(579.2021,73.875)"><path
             d="m 0,0 c -11.05,-62.778 -22.101,-125.556 -33.15,-188.333 -3.096,0.516 -6.173,1.127 -9.231,1.833 15.182,61.836 29.068,124.031 41.65,186.48 z"
             style="fill:#1d2769;fill-opacity:1;fill-rule:nonzero;stroke:none"
             id="path408"
             inkscape:connector-curvature="0" /></g><g
           id="g410"><g
             id="g412" /><g
             id="g424"><g
               clip-path="url(#clipPath416)"
               id="g422"
               style="opacity:0.19999701"><g
                 transform="translate(542.6309,313.2285)"
                 id="g420"><path
                   d="m 0,0 -45.97,16.739 c -3.014,1.098 -6.347,-0.456 -7.445,-3.47 l -5.137,-14.106 c -1.097,-3.015 0.456,-6.348 3.471,-7.445 l 41.557,-15.133 6.311,-13.368 5.547,15.231 1.643,4.512 3.494,9.595 C 4.568,-4.431 3.015,-1.098 0,0"
                   style="fill:#000a49;fill-opacity:1;fill-rule:nonzero;stroke:none"
                   id="path418"
                   inkscape:connector-curvature="0" /></g></g></g></g><g
           id="g426"
           transform="translate(542.6309,321.8696)"><path
             d="m 0,0 -45.97,16.739 c -3.014,1.098 -6.347,-0.456 -7.445,-3.47 l -5.137,-14.106 c -1.097,-3.015 0.456,-6.348 3.471,-7.445 l 41.557,-15.133 6.311,-13.368 5.547,15.231 1.643,4.512 3.494,9.595 C 4.568,-4.431 3.015,-1.098 0,0"
             style="fill:#ffffff;fill-opacity:1;fill-rule:nonzero;stroke:none"
             id="path428"
             inkscape:connector-curvature="0" /></g><g
           id="g430"
           transform="translate(524.3135,314.4805)"><path
             d="M 0,0 C -0.57,-1.565 0.237,-3.296 1.803,-3.867 3.368,-4.437 5.099,-3.63 5.669,-2.064 6.239,-0.499 5.432,1.232 3.866,1.802 2.301,2.373 0.57,1.565 0,0"
             style="fill:#2b459c;fill-opacity:1;fill-rule:nonzero;stroke:none"
             id="path432"
             inkscape:connector-curvature="0" /></g><g
           id="g434"
           transform="translate(512.291,318.8584)"><path
             d="M 0,0 C -0.569,-1.565 0.237,-3.297 1.803,-3.867 3.368,-4.437 5.1,-3.63 5.669,-2.064 6.239,-0.499 5.433,1.232 3.867,1.802 2.302,2.372 0.57,1.565 0,0"
             style="fill:#2b459c;fill-opacity:1;fill-rule:nonzero;stroke:none"
             id="path436"
             inkscape:connector-curvature="0" /></g><g
           id="g438"
           transform="translate(500.2695,323.2358)"><path
             d="m 0,0 c -0.57,-1.565 0.236,-3.296 1.802,-3.867 1.565,-0.57 3.297,0.238 3.867,1.803 C 6.238,-0.499 5.432,1.232 3.866,1.803 2.301,2.373 0.569,1.565 0,0"
             style="fill:#2b459c;fill-opacity:1;fill-rule:nonzero;stroke:none"
             id="path440"
             inkscape:connector-curvature="0" /></g><g
           id="g442"><g
             id="g444" /><g
             id="g456"><g
               clip-path="url(#clipPath448)"
               id="g454"
               style="opacity:0.19999701"><g
                 transform="translate(587.0508,249.8062)"
                 id="g452"><path
                   d="m 0,0 c -3.208,-8.858 -12.989,-13.438 -21.847,-10.231 -8.858,3.208 -13.438,12.989 -10.23,21.848 3.208,8.858 12.989,13.438 21.847,10.23 C -1.372,18.639 3.208,8.858 0,0"
                   style="fill:#000a49;fill-opacity:1;fill-rule:nonzero;stroke:none"
                   id="path450"
                   inkscape:connector-curvature="0" /></g></g></g></g><g
           id="g458"
           transform="translate(587.0508,258.4473)"><path
             d="m 0,0 c -3.208,-8.858 -12.989,-13.438 -21.847,-10.23 -8.858,3.207 -13.438,12.988 -10.23,21.847 3.208,8.858 12.989,13.438 21.847,10.23 C -1.372,18.639 3.208,8.858 0,0"
             style="fill:#fd0044;fill-opacity:1;fill-rule:nonzero;stroke:none"
             id="path460"
             inkscape:connector-curvature="0" /></g><g
           id="g462"
           transform="translate(570.4912,262.8164)"><path
             d="M 0,0 V 0 C -4.329,1.568 -9.109,-0.67 -10.677,-5 L 5,-10.677 C 6.567,-6.348 4.329,-1.567 0,0"
             style="fill:#ffffff;fill-opacity:1;fill-rule:nonzero;stroke:none"
             id="path464"
             inkscape:connector-curvature="0" /></g><g
           id="g466"
           transform="translate(571.1426,264.6147)"><path
             d="M 0,0 C 2.462,-0.892 5.182,0.382 6.073,2.844 6.966,5.307 5.692,8.026 3.229,8.918 0.767,9.81 -1.953,8.537 -2.845,6.074 -3.736,3.611 -2.463,0.892 0,0"
             style="fill:#ffffff;fill-opacity:1;fill-rule:nonzero;stroke:none"
             id="path468"
             inkscape:connector-curvature="0" /></g><g
           id="g470"><g
             id="g472" /><g
             id="g484"><g
               clip-path="url(#clipPath476)"
               id="g482"
               style="opacity:0.19999701"><g
                 transform="translate(692.5693,193.5879)"
                 id="g480"><path
                   d="m 0,0 -86.484,31.319 c -8.858,3.207 -13.438,12.989 -10.231,21.847 3.208,8.858 12.989,13.438 21.848,10.23 L 11.616,32.077 C 20.475,28.87 25.055,19.089 21.847,10.23 18.639,1.372 8.857,-3.208 0,0"
                   style="fill:#000a49;fill-opacity:1;fill-rule:nonzero;stroke:none"
                   id="path478"
                   inkscape:connector-curvature="0" /></g></g></g></g><g
           id="g486"
           transform="translate(692.5693,202.2285)"><path
             d="m 0,0 -86.484,31.319 c -8.858,3.208 -13.438,12.99 -10.231,21.848 3.208,8.857 12.989,13.438 21.848,10.23 L 11.616,32.078 C 20.475,28.87 25.055,19.089 21.847,10.231 18.639,1.373 8.857,-3.207 0,0"
             style="fill:#ffffff;fill-opacity:1;fill-rule:nonzero;stroke:none"
             id="path488"
             inkscape:connector-curvature="0" /></g><g
           id="g490"
           transform="translate(699.6113,223.7754)"><path
             d="m 0,0 c -0.151,0 -0.305,0.025 -0.455,0.08 l -84.282,30.522 c -0.696,0.252 -1.055,1.019 -0.803,1.713 0.252,0.696 1.019,1.054 1.713,0.803 L 0.455,2.596 C 1.15,2.345 1.51,1.577 1.258,0.883 1.061,0.338 0.547,0 0,0"
             style="fill:#2b459c;fill-opacity:1;fill-rule:nonzero;stroke:none"
             id="path492"
             inkscape:connector-curvature="0" /></g><g
           id="g494"
           transform="translate(697.2764,217.3281)"><path
             d="m 0,0 c -0.151,0 -0.305,0.025 -0.455,0.08 l -50.946,18.45 c -0.696,0.252 -1.055,1.019 -0.803,1.713 0.252,0.695 1.019,1.054 1.713,0.803 L 0.456,2.596 C 1.15,2.344 1.51,1.577 1.258,0.883 1.061,0.338 0.547,0 0,0"
             style="fill:#2b459c;fill-opacity:1;fill-rule:nonzero;stroke:none"
             id="path496"
             inkscape:connector-curvature="0" /></g><g
           id="g498"
           transform="translate(639.5684,238.2266)"><path
             d="m 0,0 c -0.151,0 -0.305,0.025 -0.455,0.08 l -26.574,9.623 c -0.696,0.252 -1.055,1.02 -0.803,1.714 0.252,0.695 1.02,1.054 1.713,0.802 L 0.455,2.596 C 1.15,2.345 1.51,1.577 1.258,0.883 1.061,0.338 0.547,0 0,0"
             style="fill:#2b459c;fill-opacity:1;fill-rule:nonzero;stroke:none"
             id="path500"
             inkscape:connector-curvature="0" /></g><g
           id="g502"
           transform="translate(671.9844,219.1953)"><path
             d="m 0,0 c -0.151,0 -0.305,0.025 -0.455,0.08 l -61.324,22.208 c -0.696,0.251 -1.055,1.019 -0.803,1.713 0.252,0.696 1.02,1.055 1.713,0.803 L 0.455,2.596 C 1.15,2.345 1.51,1.577 1.258,0.883 1.061,0.338 0.547,0 0,0"
             style="fill:#2b459c;fill-opacity:1;fill-rule:nonzero;stroke:none"
             id="path504"
             inkscape:connector-curvature="0" /></g><g
           id="g506"><g
             id="g508" /><g
             id="g520"><g
               clip-path="url(#clipPath512)"
               id="g518"
               style="opacity:0.19999701"><g
                 transform="translate(705.8408,290.271)"
                 id="g516"><path
                   d="m 0,0 -32.162,11.647 c -3.016,1.092 -6.347,-0.467 -7.439,-3.483 l -9.895,-27.324 c -1.092,-3.016 0.468,-6.347 3.483,-7.439 l 10.49,-3.798 1.654,-13.314 9.697,9.203 10.321,-3.739 c 3.017,-1.092 6.347,0.468 7.44,3.484 L 3.483,-7.439 C 4.576,-4.423 3.017,-1.092 0,0"
                   style="fill:#000a49;fill-opacity:1;fill-rule:nonzero;stroke:none"
                   id="path514"
                   inkscape:connector-curvature="0" /></g></g></g></g><g
           id="g522"
           transform="translate(705.8408,298.9121)"><path
             d="m 0,0 -32.162,11.647 c -3.016,1.092 -6.347,-0.467 -7.439,-3.483 l -9.895,-27.324 c -1.092,-3.016 0.468,-6.347 3.483,-7.439 l 10.49,-3.798 1.654,-13.314 9.697,9.203 10.321,-3.739 c 3.017,-1.092 6.347,0.468 7.44,3.484 L 3.483,-7.439 C 4.576,-4.423 3.017,-1.092 0,0"
             style="fill:#2b459c;fill-opacity:1;fill-rule:nonzero;stroke:none"
             id="path524"
             inkscape:connector-curvature="0" /></g><g
           id="g526"
           transform="translate(676.5498,279.2412)"><path
             d="m 0,0 -6.041,2.188 3.499,9.661 6.041,-2.188 z"
             style="fill:#ffffff;fill-opacity:1;fill-rule:nonzero;stroke:none"
             id="path528"
             inkscape:connector-curvature="0" /></g><g
           id="g530"
           transform="translate(694.5596,284.4673)"><path
             d="m 0,0 c -1.33,1.221 -5.017,3.391 -6.896,3.59 4.884,6.701 1.719,9.537 0.933,7.858 -2.023,-4.319 -5.165,-7.089 -7.373,-8.287 l -2.881,-7.955 c 1.204,-0.957 4.947,-3.692 10.523,-4.892 C -3.216,-8.125 0.187,-0.614 0,0"
             style="fill:#ffffff;fill-opacity:1;fill-rule:nonzero;stroke:none"
             id="path532"
             inkscape:connector-curvature="0" /></g><g
           id="g534"
           transform="translate(177.8013,163.4502)"><path
             d="m 0,0 c -15.296,19.703 -97.524,-13.372 -93.77,-20.499 18.129,-34.409 30.454,-45.268 54.025,-53.515 14.712,3.134 33.696,8.912 45.029,22.877 C 4.421,-43.063 5.698,-7.34 0,0"
             style="fill:#db7627;fill-opacity:1;fill-rule:nonzero;stroke:none"
             id="path536"
             inkscape:connector-curvature="0" /></g><g
           id="g538"
           transform="translate(109.9985,210.2559)"><path
             d="m 0,0 c -9.068,5.369 -46.721,26.22 -56.455,24.337 -5.565,-1.076 -8.123,-5.693 -6.037,-10.453 1.861,-4.244 6.331,-7.369 10.203,-10.325 7.577,-5.783 17.597,-9.846 24.557,-15.122 3.74,-2.835 12.537,-11.036 17.185,-12.419 C -3.302,-26.14 9.505,-5.628 0,0"
             style="fill:#db7627;fill-opacity:1;fill-rule:nonzero;stroke:none"
             id="path540"
             inkscape:connector-curvature="0" /></g><g
           id="g542"
           transform="translate(284.7832,-52.2637)"><path
             d="m 0,0 c -26.151,50.344 -82.817,135.592 -101.87,168.895 -21.064,1.313 -41.748,-10.316 -44.857,-27.195 14.326,-41.399 67.23,-133.184 85.779,-187.554 C -36.53,-28.323 -15.465,-24.144 0,0"
             style="fill:#db7627;fill-opacity:1;fill-rule:nonzero;stroke:none"
             id="path544"
             inkscape:connector-curvature="0" /></g><g
           id="g546"
           transform="translate(162.0229,116.8926)"><path
             d="m 0,0 -67.203,-7.587 c -6.781,-0.766 -12.899,4.111 -13.664,10.893 l -18.5,163.884 c -0.766,6.781 4.111,12.899 10.892,13.664 l 67.203,7.586 c 6.78,0.766 12.898,-4.11 13.664,-10.892 L 10.892,13.664 C 11.657,6.883 6.781,0.765 0,0"
             style="fill:#1d2769;fill-opacity:1;fill-rule:nonzero;stroke:none"
             id="path548"
             inkscape:connector-curvature="0" /></g><g
           id="g550"
           transform="translate(161.4805,121.6973)"><path
             d="m 0,0 -67.203,-7.587 c -6.781,-0.765 -12.899,4.111 -13.664,10.893 l -18.5,163.884 c -0.766,6.781 4.111,12.899 10.892,13.664 l 67.203,7.587 c 6.781,0.765 12.898,-4.111 13.664,-10.892 L 10.892,13.664 C 11.657,6.883 6.781,0.766 0,0"
             style="fill:#2f4dab;fill-opacity:1;fill-rule:nonzero;stroke:none"
             id="path552"
             inkscape:connector-curvature="0" /></g><g
           id="g554"
           transform="translate(117.1421,297.7998)"><path
             d="m 0,0 -11.584,-1.308 c -0.842,-0.094 -1.602,0.511 -1.697,1.353 -0.094,0.842 0.511,1.601 1.353,1.696 L -0.344,3.049 C 0.498,3.144 1.257,2.539 1.352,1.696 1.447,0.854 0.842,0.095 0,0"
             style="fill:#1d2769;fill-opacity:1;fill-rule:nonzero;stroke:none"
             id="path556"
             inkscape:connector-curvature="0" /></g><g
           id="g558"
           transform="translate(99.5938,297.3628)"><path
             d="m 0,0 c 0.095,-0.842 -0.51,-1.602 -1.352,-1.696 -0.842,-0.096 -1.602,0.51 -1.696,1.352 -0.096,0.842 0.51,1.601 1.352,1.696 C -0.854,1.447 -0.095,0.842 0,0"
             style="fill:#1d2769;fill-opacity:1;fill-rule:nonzero;stroke:none"
             id="path560"
             inkscape:connector-curvature="0" /></g><g
           id="g562"
           transform="translate(131.4702,128.1689)"><path
             d="m 0,0 c 0.292,-2.591 -1.57,-4.928 -4.161,-5.22 -2.59,-0.293 -4.927,1.571 -5.22,4.161 -0.292,2.59 1.571,4.927 4.161,5.22 C -2.629,4.453 -0.292,2.591 0,0"
             style="fill:#1d2769;fill-opacity:1;fill-rule:nonzero;stroke:none"
             id="path564"
             inkscape:connector-curvature="0" /></g></g></g><g
       id="g566"><g
         id="g568"
         clip-path="url(#clipPath572)"><g
           id="g574"
           transform="translate(172.7271,133.6387)"><path
             d="m 0,0 -91.214,-10.346 -18.411,162.329 91.214,10.345 z"
             style="fill:#c1c9e7;fill-opacity:1;fill-rule:nonzero;stroke:none"
             id="path576"
             inkscape:connector-curvature="0" /></g><g
           id="g578"
           transform="translate(169.854,158.9697)"><path
             d="m 0,0 -91.214,-10.346 -8.947,78.885 91.214,10.346 z"
             style="fill:#ffffff;fill-opacity:1;fill-rule:nonzero;stroke:none"
             id="path580"
             inkscape:connector-curvature="0" /></g><g
           id="g582"
           transform="translate(78.3481,245.3506)"><path
             d="m 0,0 c -0.813,0 -1.514,0.61 -1.608,1.437 -0.101,0.889 0.538,1.692 1.427,1.793 l 69.762,7.912 c 0.886,0.103 1.691,-0.538 1.793,-1.427 C 71.475,8.826 70.835,8.023 69.946,7.922 L 0.185,0.01 C 0.123,0.003 0.061,0 0,0"
             style="fill:#98a4d1;fill-opacity:1;fill-rule:nonzero;stroke:none"
             id="path584"
             inkscape:connector-curvature="0" /></g><g
           id="g586"
           transform="translate(79.3828,236.2285)"><path
             d="m 0,0 c -0.813,0 -1.514,0.61 -1.608,1.437 -0.101,0.889 0.538,1.692 1.427,1.793 l 69.762,7.913 c 0.886,0.099 1.691,-0.539 1.793,-1.428 C 71.475,8.826 70.835,8.023 69.946,7.922 L 0.185,0.01 C 0.123,0.003 0.061,0 0,0"
             style="fill:#98a4d1;fill-opacity:1;fill-rule:nonzero;stroke:none"
             id="path588"
             inkscape:connector-curvature="0" /></g><g
           id="g590"
           transform="translate(100.9819,141.6465)"><path
             d="m 0,0 c 0.386,-3.408 -2.063,-6.484 -5.472,-6.871 -3.408,-0.387 -6.484,2.063 -6.871,5.472 -0.386,3.408 2.064,6.484 5.472,6.871 C -3.463,5.858 -0.387,3.408 0,0"
             style="fill:#98a4d1;fill-opacity:1;fill-rule:nonzero;stroke:none"
             id="path592"
             inkscape:connector-curvature="0" /></g><g
           id="g594"
           transform="translate(107.3892,141.0254)"><path
             d="m 0,0 c -0.813,0 -1.514,0.61 -1.608,1.437 -0.101,0.89 0.538,1.692 1.427,1.793 l 52.59,5.964 c 0.89,0.102 1.692,-0.538 1.793,-1.427 0.101,-0.89 -0.538,-1.692 -1.428,-1.793 L 0.185,0.01 C 0.123,0.003 0.061,0 0,0"
             style="fill:#98a4d1;fill-opacity:1;fill-rule:nonzero;stroke:none"
             id="path596"
             inkscape:connector-curvature="0" /></g></g></g><g
       id="g598"><g
         id="g600"
         clip-path="url(#clipPath604)"><g
           id="g606"
           transform="translate(144.8784,108.0859)"><path
             d="m 0,0 c -5.46,2.319 -0.904,28.962 23.209,54.977 -3.755,12.822 -5.155,47.898 8.336,48.436 6.476,0.259 15.473,-49.108 15.473,-49.108 0,0 -2.333,-22.794 -8.811,-50.077 C 38.207,4.228 3.548,8.229 0,0"
             style="fill:#db7627;fill-opacity:1;fill-rule:nonzero;stroke:none"
             id="path608"
             inkscape:connector-curvature="0" /></g><g
           id="g610"
           transform="translate(168.3682,162.8027)"><path
             d="m 0,0 c -3.543,-3.738 -6.913,-7.486 -9.898,-11.485 -2.966,-4.01 -5.573,-8.224 -7.716,-12.675 -2.155,-4.445 -3.843,-9.111 -5.191,-13.921 -1.329,-4.818 -2.272,-9.772 -3.189,-14.845 -0.634,5.112 -0.493,10.329 0.348,15.466 0.814,5.142 2.391,10.199 4.678,14.923 2.287,4.722 5.279,9.108 8.848,12.911 C -8.573,-5.806 -4.492,-2.521 0,0"
             style="fill:#80491f;fill-opacity:1;fill-rule:nonzero;stroke:none"
             id="path612"
             inkscape:connector-curvature="0" /></g><g
           id="g614"
           transform="translate(332.2183,-82.0273)"><path
             d="m 0,0 c -46.776,63.998 -94.983,139.091 -128.675,181.104 -26.2,-4.923 -46.803,-14.692 -68.985,-34.649 24.279,-56.086 74.868,-172.909 110.186,-243.799 C -51.197,-68.923 -21.482,-35.819 0,0"
             style="fill:#c1c9e7;fill-opacity:1;fill-rule:nonzero;stroke:none"
             id="path616"
             inkscape:connector-curvature="0" /></g><g
           id="g618"
           transform="translate(203.543,99.0771)"><path
             d="m 0,0 c -3.213,-0.604 -6.341,-1.282 -9.399,-2.041 23.684,-38.953 45.484,-83.545 63.802,-132.135 13.235,-35.106 23.724,-69.845 31.518,-103.354 16.565,17.764 30.913,36.681 42.754,56.426 C 81.899,-117.106 33.692,-42.014 0,0"
             style="fill:#98a4d1;fill-opacity:1;fill-rule:nonzero;stroke:none"
             id="path620"
             inkscape:connector-curvature="0" /></g><g
           id="g622"
           transform="translate(82.6909,151.7041)"><path
             d="m 0,0 c -3.534,0.583 -6.877,0.082 -8.578,-1.934 -3.095,-3.671 -1.846,-11.454 2.226,-14.381 1.763,-1.269 3.736,-1.705 5.653,-1.943 3.901,-0.485 8.53,-0.167 11.315,3.245 C 16.967,-7.23 5.041,-0.832 0,0"
             style="fill:#db7627;fill-opacity:1;fill-rule:nonzero;stroke:none"
             id="path624"
             inkscape:connector-curvature="0" /></g><g
           id="g626"
           transform="translate(90.2827,157.4092)"><path
             d="m 0,0 c 7.25,8.883 -6.365,16.188 -12.119,17.138 -4.035,0.666 -7.852,0.093 -9.792,-2.208 -3.534,-4.191 -2.109,-13.076 2.54,-16.418 2.013,-1.448 4.266,-1.945 6.454,-2.217 C -8.464,-4.259 -3.18,-3.896 0,0"
             style="fill:#db7627;fill-opacity:1;fill-rule:nonzero;stroke:none"
             id="path628"
             inkscape:connector-curvature="0" /></g><g
           id="g630"
           transform="translate(70.4634,178.3135)"><path
             d="m 0,0 c 1.971,-1.417 4.175,-1.903 6.317,-2.17 4.36,-0.543 9.533,-0.187 12.646,3.627 7.097,8.695 -6.231,15.847 -11.864,16.776 -3.95,0.652 -7.686,0.092 -9.586,-2.161 C -5.947,11.97 -4.551,3.272 0,0"
             style="fill:#db7627;fill-opacity:1;fill-rule:nonzero;stroke:none"
             id="path632"
             inkscape:connector-curvature="0" /></g><g
           id="g634"><g
             id="g636" /><g
             id="g648"><g
               clip-path="url(#clipPath640)"
               id="g646"
               style="opacity:0.19999701"><g
                 transform="translate(123.8706,330.2261)"
                 id="g644"><path
                   d="m 0,0 -1.692,14.917 c -0.361,3.187 -3.238,5.478 -6.426,5.117 l -33.988,-3.855 c -3.187,-0.362 -5.478,-3.239 -5.117,-6.426 l 1.692,-14.917 c 0.362,-3.187 3.239,-5.478 6.426,-5.117 l 11.084,1.258 7.398,-11.193 4.598,12.553 10.908,1.237 C -1.93,-6.064 0.361,-3.188 0,0"
                   style="fill:#000a49;fill-opacity:1;fill-rule:nonzero;stroke:none"
                   id="path642"
                   inkscape:connector-curvature="0" /></g></g></g></g><g
           id="g650"
           transform="translate(123.8706,338.8672)"><path
             d="m 0,0 -1.692,14.917 c -0.361,3.187 -3.238,5.478 -6.426,5.117 l -33.988,-3.855 c -3.187,-0.362 -5.478,-3.239 -5.117,-6.426 l 1.692,-14.917 c 0.362,-3.187 3.239,-5.478 6.426,-5.117 l 11.084,1.258 7.398,-11.193 4.598,12.553 10.908,1.237 C -1.93,-6.064 0.361,-3.188 0,0"
             style="fill:#fd0044;fill-opacity:1;fill-rule:nonzero;stroke:none"
             id="path652"
             inkscape:connector-curvature="0" /></g><g
           id="g654"
           transform="translate(102.1689,347.0317)"><path
             d="M 0,0 C -0.275,2.426 -2.465,4.17 -4.892,3.896 -6.56,3.706 -7.906,2.612 -8.495,1.158 c -0.899,1.285 -2.455,2.05 -4.124,1.861 -2.426,-0.275 -4.17,-2.465 -3.895,-4.892 0.132,-1.167 0.707,-2.176 1.539,-2.878 l -0.004,-0.003 7.865,-6.263 6.263,7.865 -0.004,0.002 C -0.202,-2.279 0.132,-1.167 0,0"
             style="fill:#ffffff;fill-opacity:1;fill-rule:nonzero;stroke:none"
             id="path656"
             inkscape:connector-curvature="0" /></g></g></g><text
       transform="matrix(0.99362991,0.11269252,0.11269252,-0.99362991,107.7206,338.0918)"
       style="font-variant:normal;font-weight:800;font-stretch:normal;font-size:18.79361725px;font-family:'Gilroy ExtraBold';-inkscape-font-specification:Gilroy-ExtraBold;writing-mode:lr-tb;fill:#ffffff;fill-opacity:1;fill-rule:nonzero;stroke:none"
       id="text660"><tspan
         x="0"
         y="0"
         id="tspan658">1</tspan></text>
<g
       id="g662"><g
         id="g664"
         clip-path="url(#clipPath668)"><g
           id="g670"><g
             id="g672" /><g
             id="g684"><g
               clip-path="url(#clipPath676)"
               id="g682"
               style="opacity:0.19999701"><g
                 transform="translate(220.3037,250.8437)"
                 id="g680"><path
                   d="m 0,0 -115.987,-13.154 c -9.361,-1.062 -17.81,5.666 -18.872,15.027 -1.062,9.361 5.666,17.81 15.027,18.872 L -3.844,33.899 C 5.517,34.961 13.966,28.233 15.027,18.872 16.089,9.511 9.361,1.062 0,0"
                   style="fill:#000a49;fill-opacity:1;fill-rule:nonzero;stroke:none"
                   id="path678"
                   inkscape:connector-curvature="0" /></g></g></g></g><g
           id="g686"
           transform="translate(220.3037,259.4849)"><path
             d="m 0,0 -115.987,-13.154 c -9.361,-1.062 -17.81,5.666 -18.872,15.027 -1.062,9.361 5.666,17.81 15.027,18.872 L -3.844,33.899 C 5.517,34.961 13.966,28.233 15.027,18.872 16.089,9.511 9.361,1.062 0,0"
             style="fill:#ffffff;fill-opacity:1;fill-rule:nonzero;stroke:none"
             id="path688"
             inkscape:connector-curvature="0" /></g><g
           id="g690"
           transform="translate(127.2837,271.7524)"><path
             d="m 0,0 c -0.672,0 -1.25,0.504 -1.328,1.187 -0.083,0.734 0.445,1.397 1.179,1.48 l 89.067,10.102 c 0.739,0.075 1.397,-0.444 1.481,-1.179 0.083,-0.734 -0.445,-1.397 -1.179,-1.48 L 0.152,0.008 C 0.101,0.003 0.05,0 0,0"
             style="fill:#2b459c;fill-opacity:1;fill-rule:nonzero;stroke:none"
             id="path692"
             inkscape:connector-curvature="0" /></g><g
           id="g694"
           transform="translate(163.2847,268.9346)"><path
             d="m 0,0 c -0.672,0 -1.25,0.504 -1.328,1.187 -0.083,0.734 0.445,1.397 1.179,1.48 L 53.69,8.774 c 0.737,0.08 1.397,-0.445 1.48,-1.179 0.083,-0.734 -0.444,-1.397 -1.178,-1.48 L 0.152,0.008 C 0.101,0.003 0.05,0 0,0"
             style="fill:#2b459c;fill-opacity:1;fill-rule:nonzero;stroke:none"
             id="path696"
             inkscape:connector-curvature="0" /></g><g
           id="g698"
           transform="translate(128.0562,264.9395)"><path
             d="m 0,0 c -0.672,0 -1.25,0.504 -1.328,1.187 -0.083,0.734 0.445,1.397 1.179,1.48 L 27.934,5.853 C 28.671,5.929 29.331,5.408 29.414,4.674 29.497,3.939 28.969,3.277 28.235,3.193 L 0.152,0.008 C 0.101,0.003 0.05,0 0,0"
             style="fill:#2b459c;fill-opacity:1;fill-rule:nonzero;stroke:none"
             id="path700"
             inkscape:connector-curvature="0" /></g><g
           id="g702"
           transform="translate(128.8291,258.1265)"><path
             d="m 0,0 c -0.671,0 -1.25,0.504 -1.328,1.187 -0.083,0.734 0.445,1.397 1.179,1.48 l 64.806,7.35 c 0.738,0.072 1.398,-0.445 1.481,-1.179 0.083,-0.734 -0.445,-1.397 -1.179,-1.48 L 0.152,0.008 C 0.101,0.003 0.05,0 0,0"
             style="fill:#2b459c;fill-opacity:1;fill-rule:nonzero;stroke:none"
             id="path704"
             inkscape:connector-curvature="0" /></g><g
           id="g706"
           transform="translate(115.0654,267.3062)"><path
             d="m 0,0 -7.031,0.221 -3.803,5.916 -2.383,-6.618 -6.803,-1.79 5.559,-4.311 -0.401,-7.022 5.818,3.954 6.555,-2.551 -1.963,6.755 z"
             style="fill:#fd0044;fill-opacity:1;fill-rule:nonzero;stroke:none"
             id="path708"
             inkscape:connector-curvature="0" /></g></g></g><flowRoot
       xml:space="preserve"
       id="flowRoot5218"
       style="font-style:normal;font-variant:normal;font-weight:normal;font-stretch:normal;font-size:37.33333206px;line-height:1.25;font-family:'Alte DIN 1451 Mittelschrift gepraegt';-inkscape-font-specification:'Alte DIN 1451 Mittelschrift gepraegt, Normal';font-variant-ligatures:normal;font-variant-caps:normal;font-variant-numeric:normal;font-feature-settings:normal;text-align:center;letter-spacing:0px;word-spacing:0px;writing-mode:lr-tb;text-anchor:middle;fill:#000000;fill-opacity:1;stroke:none"
       transform="matrix(0.75000002,0,0,-0.75000002,0,500.00002)"><flowRegion
         id="flowRegion5220"
         style="font-style:normal;font-variant:normal;font-weight:normal;font-stretch:normal;font-size:37.33333206px;font-family:'Alte DIN 1451 Mittelschrift gepraegt';-inkscape-font-specification:'Alte DIN 1451 Mittelschrift gepraegt, Normal';font-variant-ligatures:normal;font-variant-caps:normal;font-variant-numeric:normal;font-feature-settings:normal;text-align:center;writing-mode:lr-tb;text-anchor:middle"><rect
           id="rect5222"
           width="539.85199"
           height="269.37399"
           x="311.32568"
           y="-266.20639"
           style="font-style:normal;font-variant:normal;font-weight:normal;font-stretch:normal;font-size:37.33333206px;font-family:'Alte DIN 1451 Mittelschrift gepraegt';-inkscape-font-specification:'Alte DIN 1451 Mittelschrift gepraegt, Normal';font-variant-ligatures:normal;font-variant-caps:normal;font-variant-numeric:normal;font-feature-settings:normal;text-align:center;writing-mode:lr-tb;text-anchor:middle" /></flowRegion><flowPara
         id="flowPara5240">See the image,</flowPara><flowPara
         id="flowPara5242">Read the text,</flowPara><flowPara
         id="flowPara5244">Type the word</flowPara><flowPara
         id="flowPara5246">and Say it! </flowPara></flowRoot><flowRoot
       xml:space="preserve"
       id="flowRoot5232"
       style="fill:black;fill-opacity:1;stroke:none;font-family:'Alte DIN 1451 Mittelschrift gepraegt';font-style:normal;font-weight:normal;font-size:16px;line-height:1.25;letter-spacing:0px;word-spacing:0px;-inkscape-font-specification:'Alte DIN 1451 Mittelschrift gepraegt, Normal';font-stretch:normal;font-variant:normal;text-anchor:middle;text-align:center;writing-mode:lr;font-variant-ligatures:normal;font-variant-caps:normal;font-variant-numeric:normal;font-feature-settings:normal"><flowRegion
         id="flowRegion5234"><rect
           id="rect5236"
           width="64.031525"
           height="35.32774"
           x="557.51587"
           y="-190.03098" /></flowRegion><flowPara
         id="flowPara5238"></flowPara></flowRoot><text
       xml:space="preserve"
       style="font-style:normal;font-variant:normal;font-weight:normal;font-stretch:normal;font-size:12px;line-height:1.25;font-family:'Alte DIN 1451 Mittelschrift gepraegt';-inkscape-font-specification:'Alte DIN 1451 Mittelschrift gepraegt, Normal';font-variant-ligatures:normal;font-variant-caps:normal;font-variant-numeric:normal;font-feature-settings:normal;text-align:center;letter-spacing:0px;word-spacing:0px;writing-mode:lr-tb;text-anchor:middle;fill:#000000;fill-opacity:1;stroke:none;stroke-width:0.75"
       x="668.19104"
       y="-619.33942"
       id="text5250"
       transform="scale(1,-1)"><tspan
         sodipodi:role="line"
         id="tspan5248"
         x="668.19104"
         y="-619.33942"
         style="stroke-width:0.75">See, Read, Type and Say!</tspan></text>
<text
       xml:space="preserve"
       style="font-style:normal;font-variant:normal;font-weight:normal;font-stretch:normal;font-size:12px;line-height:1.25;font-family:'Alte DIN 1451 Mittelschrift gepraegt';-inkscape-font-specification:'Alte DIN 1451 Mittelschrift gepraegt, Normal';font-variant-ligatures:normal;font-variant-caps:normal;font-variant-numeric:normal;font-feature-settings:normal;text-align:center;letter-spacing:0px;word-spacing:0px;writing-mode:lr-tb;text-anchor:middle;fill:#000000;fill-opacity:1;stroke:none;stroke-width:0.75"
       x="596.15558"
       y="-672.33105"
       id="text5254"
       transform="scale(1,-1)"><tspan
         sodipodi:role="line"
         id="tspan5252"
         x="596.15558"
         y="-672.33105"
         style="stroke-width:0.75">Lear englsh through pictures</tspan></text>
</g></svg>