<svg xmlns="http://www.w3.org/2000/svg" xmlns:xlink="http://www.w3.org/1999/xlink" version="1.1" x="0px" y="0px" viewBox="0 0 100 125" enable-background="new 0 0 100 100" xml:space="preserve"><g display="none"><rect x="-525.872" y="-933.875" display="inline" fill="#000000" width="1424.929" height="1317.875"/></g><g><path fill="none" d="M39.009,23.439c3.106,0,5.633-2.527,5.633-5.633c0-3.106-2.527-5.633-5.633-5.633   c-3.106,0-5.633,2.527-5.633,5.633C33.377,20.912,35.904,23.439,39.009,23.439z M39.009,15.454c1.297,0,2.352,1.055,2.352,2.352   s-1.055,2.352-2.352,2.352s-2.352-1.055-2.352-2.352S37.713,15.454,39.009,15.454z"/><path d="M80.621,21.638C80.555,12.463,72.664,5,63.031,5H51.989v17.88h28.584C80.604,22.469,80.624,22.058,80.621,21.638z"/><path d="M66.904,26.406l-0.28,0.228H51.989v11.794c0.052,0.004,0.105,0.004,0.157,0.008c0.248,0.014,0.493,0.035,0.745,0.035   C60.056,38.471,65.907,33.293,66.904,26.406z"/><path d="M75.734,33.572c1.948-1.98,3.348-4.351,4.13-6.937h-7.611v9.591C73.535,35.489,74.712,34.594,75.734,33.572z"/><polygon points="50.129,40.081 50.129,40.081 50.129,40.081  "/><polygon points="68.936,24.75 68.936,24.75 68.936,24.75  "/><path d="M19.636,95c2.646-0.806,4.577-3.27,4.577-6.176V75.679c-1.299,0.841-2.685,1.565-4.162,2.131l-0.415-0.083V95z"/><circle cx="39.009" cy="17.806" r="2.352"/><polygon points="19.379,76.057 19.379,76.057 19.379,76.057  "/><path d="M32.725,68.355c11.992,0,21.748-9.756,21.748-21.748v-4.458c-0.522,0.045-1.048,0.077-1.582,0.077   c-0.082,0-0.162-0.011-0.244-0.012h-4.412V5h-9.238c-10.676,0-19.361,8.685-19.361,19.361v11.017l0.415-0.083   C28.8,38.648,34.678,47.19,34.678,56.553c0,4.24-1.215,8.305-3.347,11.803H32.725z M33.377,17.806c0-3.106,2.527-5.633,5.633-5.633   c3.106,0,5.633,2.527,5.633,5.633c0,3.106-2.527,5.633-5.633,5.633C35.904,23.439,33.377,20.912,33.377,17.806z"/><polygon points="19.379,37.048 19.379,37.048 19.379,37.048  "/><path d="M30.924,56.553c0-7.574-4.614-14.492-11.545-17.464v29.267v1.934v3.728C26.309,71.045,30.924,64.126,30.924,56.553z"/></g><text x="0" y="115" fill="#000000" font-size="5px" font-weight="bold" font-family="'Helvetica Neue', Helvetica, Arial-Unicode, Arial, Sans-serif">Created by Oksana Latysheva</text><text x="0" y="120" fill="#000000" font-size="5px" font-weight="bold" font-family="'Helvetica Neue', Helvetica, Arial-Unicode, Arial, Sans-serif">from the Noun Project</text></svg>