<?xml version="1.0" encoding="UTF-8" standalone="no"?>
<!-- Created with Inkscape (http://www.inkscape.org/) -->

<svg
   xmlns:dc="http://purl.org/dc/elements/1.1/"
   xmlns:cc="http://creativecommons.org/ns#"
   xmlns:rdf="http://www.w3.org/1999/02/22-rdf-syntax-ns#"
   xmlns:svg="http://www.w3.org/2000/svg"
   xmlns="http://www.w3.org/2000/svg"
   xmlns:sodipodi="http://sodipodi.sourceforge.net/DTD/sodipodi-0.dtd"
   xmlns:inkscape="http://www.inkscape.org/namespaces/inkscape"
   width="1024"
   height="1024"
   viewBox="0 0 270.93335 270.93336"
   version="1.1"
   id="svg8"
   inkscape:version="0.92.5 (2060ec1f9f, 2020-04-08)"
   sodipodi:docname="ram_adaptive.svg"
   inkscape:export-filename="/home/luciano/Development/repeat_after_me_v1/logotipos/ram_adaptive.png"
   inkscape:export-xdpi="96.000008"
   inkscape:export-ydpi="96.000008">
  <defs
     id="defs2" />
  <sodipodi:namedview
     id="base"
     pagecolor="#ffffff"
     bordercolor="#666666"
     borderopacity="1.0"
     inkscape:pageopacity="0.0"
     inkscape:pageshadow="2"
     inkscape:zoom="0.83398438"
     inkscape:cx="512"
     inkscape:cy="512"
     inkscape:document-units="mm"
     inkscape:current-layer="layer1"
     showgrid="false"
     fit-margin-top="0"
     fit-margin-left="0"
     fit-margin-right="0"
     fit-margin-bottom="0"
     units="px"
     inkscape:window-width="1864"
     inkscape:window-height="1016"
     inkscape:window-x="56"
     inkscape:window-y="27"
     inkscape:window-maximized="1" />
  <metadata
     id="metadata5">
    <rdf:RDF>
      <cc:Work
         rdf:about="">
        <dc:format>image/svg+xml</dc:format>
        <dc:type
           rdf:resource="http://purl.org/dc/dcmitype/StillImage" />
        <dc:title></dc:title>
      </cc:Work>
    </rdf:RDF>
  </metadata>
  <g
     inkscape:label="Layer 1"
     inkscape:groupmode="layer"
     id="layer1"
     transform="translate(-66.372627,-82.914257)">
    <g
       transform="matrix(0.6964286,0,0,0.6964286,103.30089,76.402388)"
       id="layer1-6"
       inkscape:label="Layer 1">
      <g
         transform="matrix(0.26458333,0,0,0.26458333,47.542809,203.23667)"
         id="g897"
         display="none"
         style="display:none">
        <rect
           id="rect895"
           height="1317.875"
           width="1424.929"
           display="inline"
           y="-933.875"
           x="-525.87201"
           style="display:inline;fill:#000000" />
      </g>
      <rect
         y="85.333321"
         x="31.75"
         height="92.604156"
         width="87.312508"
         id="rect4701"
         style="fill:#ee6a5b;fill-opacity:1;stroke:none;stroke-width:2.42752075;stroke-miterlimit:4;stroke-dasharray:none" />
      <rect
         y="85.333321"
         x="119.06251"
         height="92.604149"
         width="124.35418"
         id="rect4703"
         style="fill:#90ee90;fill-opacity:1;stroke:none;stroke-width:2.95020413;stroke-miterlimit:4;stroke-dasharray:none" />
      <rect
         ry="0"
         y="177.93747"
         x="31.75"
         height="119.06252"
         width="87.312508"
         id="rect4705"
         style="fill:#ffa500;fill-opacity:1;stroke:none;stroke-width:3.14642692;stroke-miterlimit:4;stroke-dasharray:none" />
      <rect
         y="177.93747"
         x="119.06251"
         height="119.06252"
         width="124.35416"
         id="rect4707"
         style="fill:#00bfff;fill-opacity:1;stroke:none;stroke-width:3.61324763;stroke-miterlimit:4;stroke-dasharray:none" />
      <text
         id="text4680"
         y="246.16158"
         x="146.16792"
         style="font-style:normal;font-variant:normal;font-weight:600;font-stretch:normal;font-size:44.02304077px;line-height:1.25;font-family:'URW Gothic';-inkscape-font-specification:'URW Gothic, Semi-Bold';font-variant-ligatures:normal;font-variant-caps:normal;font-variant-numeric:normal;font-feature-settings:normal;text-align:center;letter-spacing:0px;word-spacing:0px;writing-mode:lr-tb;text-anchor:middle;fill:#000000;fill-opacity:1;stroke:none;stroke-width:2.75144005"
         xml:space="preserve"><tspan
           style="font-style:normal;font-variant:normal;font-weight:600;font-stretch:normal;font-size:44.02304077px;font-family:'URW Gothic';-inkscape-font-specification:'URW Gothic, Semi-Bold';font-variant-ligatures:normal;font-variant-caps:normal;font-variant-numeric:normal;font-feature-settings:normal;text-align:center;writing-mode:lr-tb;text-anchor:middle;stroke-width:2.75144005"
           y="246.16158"
           x="146.16792"
           id="tspan4678"
           sodipodi:role="line">RAM</tspan></text>
      <g
         transform="matrix(1.0636759,0,0,1.0636759,67.64856,133.12925)"
         id="g923">
        <path
           id="path899"
           d="m 39.009,23.439 c 3.106,0 5.633,-2.527 5.633,-5.633 0,-3.106 -2.527,-5.633 -5.633,-5.633 -3.106,0 -5.633,2.527 -5.633,5.633 0.001,3.106 2.528,5.633 5.633,5.633 z m 0,-7.985 c 1.297,0 2.352,1.055 2.352,2.352 0,1.297 -1.055,2.352 -2.352,2.352 -1.297,0 -2.352,-1.055 -2.352,-2.352 0,-1.297 1.056,-2.352 2.352,-2.352 z"
           inkscape:connector-curvature="0"
           style="fill:none" />
        <path
           id="path901"
           d="M 80.621,21.638 C 80.555,12.463 72.664,5 63.031,5 H 51.989 v 17.88 h 28.584 c 0.031,-0.411 0.051,-0.822 0.048,-1.242 z"
           inkscape:connector-curvature="0" />
        <path
           id="path903"
           d="m 66.904,26.406 -0.28,0.228 H 51.989 v 11.794 c 0.052,0.004 0.105,0.004 0.157,0.008 0.248,0.014 0.493,0.035 0.745,0.035 7.165,0 13.016,-5.178 14.013,-12.065 z"
           inkscape:connector-curvature="0" />
        <path
           id="path905"
           d="m 75.734,33.572 c 1.948,-1.98 3.348,-4.351 4.13,-6.937 h -7.611 v 9.591 c 1.282,-0.737 2.459,-1.632 3.481,-2.654 z"
           inkscape:connector-curvature="0" />
        <polygon
           id="polygon907"
           points="" />
        <polygon
           id="polygon909"
           points="" />
        <path
           id="path911"
           d="m 19.636,95 c 2.646,-0.806 4.577,-3.27 4.577,-6.176 V 75.679 c -1.299,0.841 -2.685,1.565 -4.162,2.131 l -0.415,-0.083 z"
           inkscape:connector-curvature="0" />
        <circle
           id="circle913"
           r="2.352"
           cy="17.806"
           cx="39.008999" />
        <polygon
           id="polygon915"
           points="" />
        <path
           id="path917"
           d="m 32.725,68.355 c 11.992,0 21.748,-9.756 21.748,-21.748 v -4.458 c -0.522,0.045 -1.048,0.077 -1.582,0.077 -0.082,0 -0.162,-0.011 -0.244,-0.012 H 48.235 V 5 H 38.997 C 28.321,5 19.636,13.685 19.636,24.361 v 11.017 l 0.415,-0.083 c 8.749,3.353 14.627,11.895 14.627,21.258 0,4.24 -1.215,8.305 -3.347,11.803 h 1.394 z m 0.652,-50.549 c 0,-3.106 2.527,-5.633 5.633,-5.633 3.106,0 5.633,2.527 5.633,5.633 0,3.106 -2.527,5.633 -5.633,5.633 -3.106,0 -5.633,-2.527 -5.633,-5.633 z"
           inkscape:connector-curvature="0" />
        <polygon
           id="polygon919"
           points="" />
        <path
           id="path921"
           d="m 30.924,56.553 c 0,-7.574 -4.614,-14.492 -11.545,-17.464 v 29.267 1.934 3.728 c 6.93,-2.973 11.545,-9.892 11.545,-17.465 z"
           inkscape:connector-curvature="0" />
      </g>
    </g>
  </g>
</svg>
